<?xml version="1.0" encoding="UTF-8"?>
<svg version="1.1" xmlns="http://www.w3.org/2000/svg" width="512" height="512">
<path d="M0 0 C168.96 0 337.92 0 512 0 C512 168.96 512 337.92 512 512 C343.04 512 174.08 512 0 512 C0 343.04 0 174.08 0 0 Z " fill="#FEFEFE" transform="translate(0,0)"/>
<path d="M0 0 C0.71227753 0.00487427 1.42455505 0.00974854 2.15841675 0.01477051 C24.06796797 0.18917611 46.90015738 3.19667419 67.3125 11.5 C68.11300781 11.77328125 68.91351563 12.0465625 69.73828125 12.328125 C80.39329752 15.96717542 90.28075069 20.77422924 99.3125 27.5 C100.10269531 27.80292969 100.89289063 28.10585937 101.70703125 28.41796875 C104.55257205 29.59970009 106.54969587 31.06349906 108.9375 33 C111.36037381 34.95152976 113.72007162 36.77171442 116.3125 38.5 C116.68509549 40.31293213 116.68509549 40.31293213 116.68164349 42.55673409 C116.68761663 43.4106647 116.69358978 44.26459532 116.69974393 45.14440262 C116.6910054 46.08796832 116.68226688 47.03153403 116.67326355 48.00369263 C116.67582682 49.00178825 116.6783901 49.99988388 116.68103105 51.02822483 C116.68599768 54.39414035 116.66942848 57.75961364 116.65307617 61.12548828 C116.65223052 63.5296935 116.65270382 65.93389949 116.65440369 68.33810425 C116.65508825 73.52520194 116.646544 78.71219844 116.62969017 83.89926529 C116.60533804 91.39893773 116.5974988 98.89855539 116.5937262 106.39826308 C116.58715575 118.56518164 116.56717853 130.73203995 116.53881836 142.89892578 C116.51129312 154.71988625 116.49005204 166.54083037 116.47729492 178.36181641 C116.47611267 179.45426862 116.47611267 179.45426862 116.47490653 180.56879057 C116.47099149 184.22236258 116.46720035 187.87593471 116.46347082 191.52950692 C116.43235644 221.85304775 116.37928197 252.17651553 116.3125 282.5 C112.69094859 281.84812214 110.44033548 281.17566905 107.51953125 278.91015625 C106.46415161 278.11170288 106.46415161 278.11170288 105.38745117 277.29711914 C104.64084229 276.72469482 103.8942334 276.15227051 103.125 275.5625 C96.95616915 270.97334516 90.7370026 266.77350512 84 263.0625 C82.98160034 262.49897827 82.98160034 262.49897827 81.94262695 261.92407227 C79.75058998 260.74306387 77.53982669 259.61310026 75.3125 258.5 C74.34497803 258.01547363 73.37745605 257.53094727 72.38061523 257.03173828 C64.44350824 253.20385382 56.50092865 250.52906934 48 248.25 C46.80955078 247.91226563 45.61910156 247.57453125 44.39257812 247.2265625 C29.09211864 243.04547943 14.11961625 242.18228417 -1.63745117 242.04370117 C-15.50395351 241.89934106 -27.04853377 240.44227541 -37.625 230.71875 C-45.56584176 222.36717505 -48.79704075 212.58495718 -48.83467102 201.24641418 C-48.83834771 200.52640895 -48.8420244 199.80640372 -48.8458125 199.06458014 C-48.85680563 196.65738531 -48.86068572 194.25023371 -48.86450195 191.84301758 C-48.8707699 190.11468368 -48.87741699 188.38635112 -48.88441467 186.65802002 C-48.90541774 180.98686657 -48.9158134 175.31571297 -48.92578125 169.64453125 C-48.92983018 167.68928196 -48.93394714 165.73403281 -48.93813133 163.7787838 C-48.95717458 154.59188052 -48.97140756 145.40498524 -48.9797433 136.21806604 C-48.98951347 125.62625692 -49.01583092 115.03465691 -49.05624419 104.44292146 C-49.08643771 96.24740131 -49.10121524 88.05194101 -49.10452431 79.85636634 C-49.10687103 74.96553394 -49.11578237 70.07492516 -49.14098549 65.1841526 C-49.16432798 60.58021488 -49.16847468 55.97664705 -49.15822411 51.37266541 C-49.15773014 49.68850153 -49.16400929 48.00431906 -49.17778015 46.32021141 C-49.28683598 32.18571542 -46.74509113 20.73307406 -36.53515625 10.30078125 C-25.91711735 0.99063693 -13.65125364 -0.20507502 0 0 Z " fill="#427299" transform="translate(128.6875,72.5)"/>
<path d="M0 0 C1.83173498 -0.03146756 3.66327168 -0.07904007 5.49414062 -0.14355469 C19.62022175 -0.63259826 31.2650996 1.08392988 42.29956055 10.65332031 C50.11463493 18.80739012 53.06441303 29.1921382 53.11462402 40.27436829 C53.12056627 41.01256544 53.12650851 41.75076259 53.13263083 42.51132935 C53.14984652 44.96218998 53.15300762 47.41285344 53.15600586 49.86376953 C53.16527328 51.63033457 53.17532408 53.39689564 53.18609619 55.16345215 C53.2122372 59.94662089 53.22521242 64.72973363 53.23411751 69.51296258 C53.23999479 72.50549262 53.24820721 75.4980076 53.25712585 78.49053001 C53.2844442 87.86590636 53.30379434 97.241248 53.31152964 106.61666137 C53.32049125 117.41683804 53.35560151 128.2165085 53.41353083 139.01653129 C53.45683099 147.38113693 53.47694163 155.74560046 53.47961187 164.11031693 C53.48170272 169.09905045 53.49340523 174.08730709 53.5292511 179.07592201 C53.56233019 183.77033165 53.56646816 188.46390884 53.54897308 193.15839386 C53.54743868 194.87440161 53.55603413 196.59045524 53.57588959 198.3063488 C53.68539129 208.36467685 52.94260631 216.08498618 46.83374023 224.51489258 C46.28930519 225.27311971 45.74487015 226.03134684 45.18393707 226.81255054 C40.44031622 233.09047234 32.86984152 238.45530448 25.11962891 240.0859375 C21.48626231 240.56025395 17.95875176 240.67661454 14.29467773 240.72583008 C12.82192579 240.75138503 11.34918829 240.77778402 9.87646484 240.80493164 C9.11381317 240.81818481 8.3511615 240.83143799 7.56539917 240.84509277 C-6.18048442 241.10640038 -19.69030672 241.54664783 -33.16625977 244.51489258 C-33.89941406 244.67441406 -34.63256836 244.83393555 -35.38793945 244.99829102 C-58.98259739 250.35931011 -80.80831668 261.53251465 -99.95922852 276.13208008 C-107.20396468 281.51489258 -107.20396468 281.51489258 -111.16625977 281.51489258 C-111.48584904 250.47383132 -111.73350199 219.43320626 -111.88117438 188.39088965 C-111.89868363 184.7235624 -111.9168042 181.05623841 -111.93530273 177.38891602 C-111.93897508 176.6588385 -111.94264743 175.92876099 -111.94643106 175.17655991 C-112.00729983 163.36523045 -112.11765344 151.55485792 -112.24639891 139.74409558 C-112.37746462 127.61907398 -112.45511206 115.49455242 -112.48349869 103.36885154 C-112.50268112 95.88994654 -112.56318158 88.41374618 -112.6770903 80.93567424 C-112.76006611 75.19481026 -112.76859828 69.45566684 -112.7497673 63.71432304 C-112.75361303 61.36402066 -112.78138912 59.01361417 -112.83513641 56.66392326 C-113.21058034 39.40096721 -113.21058034 39.40096721 -109.81971216 34.61390066 C-106.62010923 31.44451147 -103.02200427 29.30813335 -98.97291017 27.39012885 C-96.09301719 25.99495755 -93.44274072 24.27005736 -90.72875977 22.57739258 C-86.62355426 20.24874072 -82.55098497 18.25051297 -78.16625977 16.51489258 C-77.44438477 16.12301758 -76.72250977 15.73114258 -75.97875977 15.32739258 C-74.16625977 14.51489258 -74.16625977 14.51489258 -70.16625977 14.51489258 C-70.16625977 13.85489258 -70.16625977 13.19489258 -70.16625977 12.51489258 C-47.43917049 5.08172011 -23.91062279 0.31536539 0 0 Z " fill="#668FBC" transform="translate(382.166259765625,73.485107421875)"/>
<path d="M0 0 C12.21 0 24.42 0 37 0 C39.47702275 5.57330119 41.75394316 10.8515596 43.75 16.5625 C44.17796875 17.78066406 44.6059375 18.99882812 45.046875 20.25390625 C45.36140625 21.16011719 45.6759375 22.06632812 46 23 C46.20681396 22.3387915 46.41362793 21.67758301 46.62670898 20.99633789 C47.56043664 18.01737694 48.4989024 15.03992995 49.4375 12.0625 C49.76298828 11.02158203 50.08847656 9.98066406 50.42382812 8.90820312 C50.73642578 7.91884766 51.04902344 6.92949219 51.37109375 5.91015625 C51.65911865 4.99371338 51.94714355 4.07727051 52.24389648 3.13305664 C53 1 53 1 54 0 C56.6662603 -0.08855161 59.30647114 -0.11524673 61.97265625 -0.09765625 C62.77029892 -0.0962413 63.56794159 -0.09482635 64.38975525 -0.09336853 C66.94737435 -0.08775316 69.50490718 -0.07519812 72.0625 -0.0625 C73.79231645 -0.05748698 75.52213426 -0.05292373 77.25195312 -0.04882812 C81.50133553 -0.03777875 85.75065312 -0.02050386 90 0 C90 4.62 90 9.24 90 14 C88.68 14 87.36 14 86 14 C86 26.21 86 38.42 86 51 C87.32 51 88.64 51 90 51 C90 55.29 90 59.58 90 64 C79.77 64 69.54 64 59 64 C59 59.71 59 55.42 59 51 C60.32 51 61.64 51 63 51 C62.505 38.625 62.505 38.625 62 26 C56.12612772 43.38148252 56.12612772 43.38148252 50.69140625 60.90234375 C50 63 50 63 49 64 C45.04 64 41.08 64 37 64 C32.71 51.79 28.42 39.58 24 27 C23.67 34.59 23.34 42.18 23 50 C24.32 50 25.64 50 27 50 C27 54.62 27 59.24 27 64 C18.09 64 9.18 64 0 64 C0 59.71 0 55.42 0 51 C1.32 51 2.64 51 4 51 C4 38.79 4 26.58 4 14 C2.68 14 1.36 14 0 14 C0 9.38 0 4.76 0 0 Z " fill="#22648F" transform="translate(213,397)"/>
<path d="M0 0 C5.79829005 -0.09956118 11.59607242 -0.17179346 17.39501953 -0.21972656 C19.36385782 -0.23972787 21.33263756 -0.26693802 23.30126953 -0.30175781 C26.14630658 -0.35078531 28.99055215 -0.37308382 31.8359375 -0.390625 C32.70302338 -0.41127014 33.57010925 -0.43191528 34.46347046 -0.45318604 C41.30230841 -0.45564543 48.39267043 0.84349732 53.69491577 5.48309326 C58.82262016 11.40501799 58.52229232 17.54282636 58 25 C56.81070145 30.59373471 53.68776958 33.84477047 49 37 C43.88528333 38.80043011 39.46671594 39.22064984 34.0625 39.125 C33.37865234 39.11597656 32.69480469 39.10695313 31.99023438 39.09765625 C30.32666713 39.07438958 28.66328369 39.03853167 27 39 C27 42.96 27 46.92 27 51 C29.64 51 32.28 51 35 51 C35 55.29 35 59.58 35 64 C23.45 64 11.9 64 0 64 C0 59.38 0 54.76 0 50 C1.32 50 2.64 50 4 50 C4 38.12 4 26.24 4 14 C2.68 14 1.36 14 0 14 C0 9.38 0 4.76 0 0 Z " fill="#246590" transform="translate(306,397)"/>
<path d="M0 0 C5.79829005 -0.09956118 11.59607242 -0.17179346 17.39501953 -0.21972656 C19.36385782 -0.23972787 21.33263756 -0.26693802 23.30126953 -0.30175781 C26.14630658 -0.35078531 28.99055215 -0.37308382 31.8359375 -0.390625 C32.70302338 -0.41127014 33.57010925 -0.43191528 34.46347046 -0.45318604 C41.30230841 -0.45564543 48.39267043 0.84349732 53.69491577 5.48309326 C58.82262016 11.40501799 58.52229232 17.54282636 58 25 C56.81070145 30.59373471 53.68776958 33.84477047 49 37 C43.88528333 38.80043011 39.46671594 39.22064984 34.0625 39.125 C33.37865234 39.11597656 32.69480469 39.10695313 31.99023438 39.09765625 C30.32666713 39.07438958 28.66328369 39.03853167 27 39 C27 42.96 27 46.92 27 51 C29.64 51 32.28 51 35 51 C35 55.29 35 59.58 35 64 C23.45 64 11.9 64 0 64 C0 59.38 0 54.76 0 50 C1.32 50 2.64 50 4 50 C4 38.12 4 26.24 4 14 C2.68 14 1.36 14 0 14 C0 9.38 0 4.76 0 0 Z " fill="#246590" transform="translate(152,397)"/>
<path d="M0 0 C1.98 0 3.96 0 6 0 C8 2 8 2 8.265625 4.09375 C8.26046875 4.8878125 8.2553125 5.681875 8.25 6.5 C8.25515625 7.2940625 8.2603125 8.088125 8.265625 8.90625 C8 11 8 11 6 13 C4.02 13 2.04 13 0 13 C0 8.71 0 4.42 0 0 Z " fill="#ECF2F5" transform="translate(333,411)"/>
<path d="M0 0 C1.98 0 3.96 0 6 0 C8 2 8 2 8.265625 4.09375 C8.26046875 4.8878125 8.2553125 5.681875 8.25 6.5 C8.25515625 7.2940625 8.2603125 8.088125 8.265625 8.90625 C8 11 8 11 6 13 C4.02 13 2.04 13 0 13 C0 8.71 0 4.42 0 0 Z " fill="#ECF2F5" transform="translate(179,411)"/>
</svg>
